<svg id="Icon_Visibility_01_On" xmlns="http://www.w3.org/2000/svg" width="36" height="36" viewBox="0 0 36 36">
  <rect id="Rectangle_1830" data-name="Rectangle 1830" width="36" height="36" fill="none"/>
  <path id="Path_2076" data-name="Path 2076" d="M21.752,34.605A15.4,15.4,0,0,1,8.365,26.781a3.37,3.37,0,0,1,0-3.3,15.366,15.366,0,0,1,26.775,0,3.37,3.37,0,0,1,0,3.3,15.4,15.4,0,0,1-13.388,7.824m0-17.034A13.485,13.485,0,0,0,10.03,24.423a1.43,1.43,0,0,0,0,1.417,13.454,13.454,0,0,0,23.444,0,1.43,1.43,0,0,0,0-1.417,13.486,13.486,0,0,0-11.722-6.852" transform="translate(-3.752 -7.132)"/>
  <path id="Path_2077" data-name="Path 2077" d="M28.146,33.744a5.6,5.6,0,1,1,5.6-5.6,5.6,5.6,0,0,1-5.6,5.6m0-9.283a3.685,3.685,0,1,0,3.685,3.685,3.689,3.689,0,0,0-3.685-3.685" transform="translate(-10.146 -10.146)"/>
</svg>
