<svg id="Icon_Visibility_01_Off" xmlns="http://www.w3.org/2000/svg" width="36" height="36" viewBox="0 0 36 36">
  <rect id="Rectangle_1830" data-name="Rectangle 1830" width="36" height="36" fill="none"/>
  <path id="Path_2078" data-name="Path 2078" d="M41.637,23.483a15.321,15.321,0,0,0-18.852-6.806l1.5,1.5a13.409,13.409,0,0,1,15.685,6.245,1.43,1.43,0,0,1,0,1.417,13.455,13.455,0,0,1-3.778,4.241l1.369,1.369a15.372,15.372,0,0,0,4.075-4.669,3.373,3.373,0,0,0,0-3.3" transform="translate(-10.25 -7.132)"/>
  <path id="Path_2079" data-name="Path 2079" d="M35.974,30.313a5.6,5.6,0,0,0-7.329-7.328l1.534,1.534a3.666,3.666,0,0,1,4.262,4.26Z" transform="translate(-12.813 -10.146)"/>
  <path id="Path_2080" data-name="Path 2080" d="M12.48,14.4a1.012,1.012,0,0,0-1.432,1.432l1.927,1.927A15.337,15.337,0,0,0,8.365,22.8a3.37,3.37,0,0,0,0,3.3,15.316,15.316,0,0,0,19.5,6.54l2.178,2.178a1.012,1.012,0,1,0,1.432-1.432Zm5.846,8.708L23.1,27.876a3.641,3.641,0,0,1-1.346.26,3.69,3.69,0,0,1-3.685-3.685,3.646,3.646,0,0,1,.26-1.344m3.426,8.9A13.486,13.486,0,0,1,10.03,25.16a1.43,1.43,0,0,1,0-1.417,13.472,13.472,0,0,1,4.317-4.614l2.55,2.549a5.544,5.544,0,0,0-.743,2.774,5.6,5.6,0,0,0,5.6,5.6,5.547,5.547,0,0,0,2.775-.744L26.4,31.174a13.357,13.357,0,0,1-4.644.838" transform="translate(-3.752 -6.451)"/>
</svg>
